<?xml version="1.0" encoding="UTF-8" standalone="no"?>
<!-- Created with Inkscape (http://www.inkscape.org/) -->

<svg
   width="2683.4792"
   height="862.50354"
   viewBox="0 0 2683.4792 862.50354"
   version="1.1"
   id="svg1"
   xmlns="http://www.w3.org/2000/svg"
   xmlns:svg="http://www.w3.org/2000/svg">
  <defs
     id="defs1" />
  <g
     id="layer1"
     transform="translate(2033.5756,712.50342)">
    <circle
       style="fill:none;stroke:#000000;stroke-width:50;stroke-linecap:round;stroke-linejoin:round;stroke-dasharray:none"
       id="path10"
       cx="370.51398"
       cy="-358.25162"
       r="125"
       transform="rotate(30)" />
    <path
       d="m -1906.1082,25.369528 q -37.9311,0 -70.4434,-11.379312 -31.9704,-11.9211846 -49.8522,-29.802961 -8.1281,-8.669952 -7.0443,-19.507392 1.6256,-11.379312 10.8374,-18.423649 10.8374,-8.669952 21.133,-7.044336 10.8374,1.083744 18.4237,9.211824 9.2118,10.295569 29.261,19.507393 20.5912,8.669952 45.5173,8.669952 31.4286,0 47.6847,-10.295568 16.7981,-10.295568 17.3399,-26.551729 0.5419,-16.25616 -15.7143,-28.177344 -15.7142,-11.921186 -57.9803,-19.507396 -54.729,-10.83744 -79.6551,-32.51232 -24.3843,-21.67488 -24.3843,-53.10345 0,-27.63548 16.2562,-45.51725 16.2561,-18.42365 41.7241,-27.0936 25.468,-9.21183 53.1035,-9.21183 35.7635,0 63.399,11.37931 27.6355,11.37932 43.8916,31.42858 7.5862,8.66995 7.0444,18.42365 -0.5419,9.21182 -9.2119,15.71429 -8.6699,5.96059 -20.5911,3.7931 -11.9212,-2.16749 -20.0493,-9.75369 -13.5468,-13.00493 -29.261,-17.88178 -15.7143,-4.87685 -36.3055,-4.87685 -23.8423,0 -40.6404,8.12808 -16.2561,8.12808 -16.2561,23.84237 0,9.7537 4.8768,17.88178 5.4187,7.5862 20.5912,14.08867 15.1724,5.96059 44.4335,11.92118 40.6404,8.12808 63.9409,20.59114 23.8423,12.46306 34.1379,29.26109 10.2956,16.256158 10.2956,37.931038 0,24.926113 -13.5468,44.975377 -13.005,20.0492643 -39.0148,31.970449 -25.468,11.921184 -63.9409,11.921184 z m 214.039,124.630562 q -11.9211,0 -20.0492,-8.12808 -7.5862,-7.58621 -7.5862,-19.50739 v -247.09364 q 0.5418,-42.80789 20.0492,-76.94582 19.5074,-34.13794 53.1035,-53.64533 33.5961,-20.04927 75.8621,-20.04927 42.8079,0 76.4039,20.04927 33.5961,19.50739 53.1035,53.64533 20.0492,34.13793 20.0492,76.94582 0,42.80789 -18.4236,76.945827 -17.8818,33.596064 -49.3104,53.6453284 -31.4285,19.5073926 -70.9852,19.5073926 -31.9704,0 -59.064,-13.004928 -26.5518,-13.5468007 -45.5173,-36.305425 V 122.36462 q 0,11.92118 -7.5862,19.50739 -7.5862,8.12808 -20.0493,8.12808 z m 121.3794,-173.399043 q 27.6354,0 49.3103,-13.004928 21.6749,-13.546801 34.138,-36.305425 13.0049,-23.300496 13.0049,-52.019714 0,-29.26109 -13.0049,-52.01971 -12.4631,-23.3005 -34.138,-36.30543 -21.6749,-13.5468 -49.3103,-13.5468 -27.0936,0 -49.3104,13.5468 -21.6749,13.00493 -34.1379,36.30543 -12.4631,22.75862 -12.4631,52.01971 0,28.719218 12.4631,52.019714 12.463,22.758624 34.1379,36.305425 22.2168,13.004928 49.3104,13.004928 z m 259.5562,-61.231537 q -11.9212,0 -20.0493,-7.586208 -7.5862,-8.128082 -7.5862,-20.049262 v -260.09857 q 0,-12.46305 7.5862,-20.04926 8.1281,-7.58621 20.0493,-7.58621 12.463,0 20.0492,7.58621 7.5862,7.58621 7.5862,20.04926 v 260.09857 q 0,11.92118 -7.5862,20.049262 -7.5862,7.586208 -20.0492,7.586208 z m 222.7094,108.374402 q -11.9212,0 -20.0493,-7.586208 -7.5862,-8.1280805 -7.5862,-20.0492647 V -137.19208 q 0,-30.8867 -11.3793,-50.39409 -11.3793,-19.50739 -30.8867,-28.71922 -18.9656,-9.75369 -43.8917,-9.75369 -22.7586,0 -41.1822,9.21182 -18.4237,9.21182 -29.2611,24.92611 -10.8375,15.17242 -10.8375,35.22168 h -34.1379 q 0,-34.13793 16.2562,-60.68966 16.798,-27.0936 45.5172,-42.80789 28.7192,-15.71429 64.4828,-15.71429 37.3891,0 66.6502,16.25616 29.803,15.71429 46.601,46.60099 17.3399,30.88671 17.3399,75.86208 V -3.8915607 q 0,11.9211842 -8.1281,20.0492647 -7.5862,7.586208 -19.5073,7.586208 z m -222.7094,0 q -11.9212,0 -20.0493,-7.586208 -7.5862,-8.1280805 -7.5862,-20.0492647 V -245.56648 q 0,-12.46305 7.5862,-20.04926 8.1281,-7.58621 20.0493,-7.58621 12.463,0 20.0492,7.58621 7.5862,7.58621 7.5862,20.04926 V -3.8915607 q 0,11.9211842 -7.5862,20.0492647 -7.5862,7.586208 -20.0492,7.586208 z m 481.72447,1.625616 q -44.97538,0 -80.19706,-18.9655206 -34.67981,-19.5073924 -54.72907,-53.1034564 -19.5074,-34.137937 -19.5074,-78.029571 0,-44.4335 18.42365,-78.02957 18.96552,-34.13793 52.01972,-53.10346 33.05419,-19.50739 75.86208,-19.50739 42.26601,0 72.61085,18.96552 30.34483,18.42365 46.05912,51.47784 16.25616,32.51232 16.25616,75.32021 0,10.29557 -7.04434,17.33991 -7.04434,6.50246 -17.88178,6.50246 h -218.37442 v -43.34976 h 216.74881 l -22.21675,15.17242 q -0.54188,-27.0936 -10.83744,-48.22661 -10.29557,-21.67488 -29.26109,-34.13794 -18.96552,-12.46305 -46.05912,-12.46305 -30.88671,0 -53.10346,13.5468 -21.67488,13.5468 -33.05419,37.38916 -11.37932,23.3005 -11.37932,53.10346 0,29.802962 13.5468,53.103458 13.54681,23.300496 37.38917,36.847297 23.84237,13.5468 54.72908,13.5468 16.79803,0 34.13793,-5.960592 17.88178,-6.502464 28.71922,-14.630544 8.12808,-5.960592 17.3399,-5.960592 9.7537,-0.541873 16.79804,5.41872 9.21182,8.12808 9.75369,17.881776 0.54187,9.753696 -8.66995,16.7980322 -18.42365,14.6305442 -46.05912,23.8423688 -27.0936,9.211824 -52.01971,9.211824 z m 223.7933,-187.487718 q 0,-32.51232 15.71429,-57.9803 16.25616,-26.00986 43.34976,-41.18228 27.0936,-15.17241 59.60592,-15.17241 32.51232,0 48.22661,10.83744 16.25616,10.29557 12.46306,24.92611 -1.62562,7.58621 -6.50246,11.92119 -4.33498,3.7931 -10.29557,4.87684 -5.9606,1.08375 -13.00493,-0.54187 -34.67981,-7.04433 -62.31528,-1.08374 -27.63547,5.96059 -43.89164,22.21675 -15.71428,16.25616 -15.71428,41.18227 z m 0.54188,185.32023 q -13.00493,0 -20.04927,-6.502464 -7.04433,-7.0443365 -7.04433,-20.5911367 V -246.10835 q 0,-13.00493 7.04433,-20.04926 7.04434,-7.04434 20.04927,-7.04434 13.5468,0 20.04926,7.04434 7.04434,6.50246 7.04434,20.04926 V -3.8915607 q 0,13.0049282 -7.04434,20.0492647 -6.50246,7.044336 -20.04926,7.044336 z m 269.31044,0 q -11.92118,0 -20.04926,-7.586208 -7.58621,-8.1280806 -7.58621,-20.0492648 V -245.56648 q 0,-12.46305 7.58621,-20.04926 8.12808,-7.58621 20.04926,-7.58621 12.46306,0 20.04927,7.58621 7.5862,7.58621 7.5862,20.04926 V -4.4334328 q 0,11.9211842 -7.5862,20.0492648 -7.58621,7.586208 -20.04927,7.586208 z m 0,-344.6306 q -14.63054,0 -25.46798,-10.29557 -10.29557,-10.83744 -10.29557,-25.46798 0,-14.63055 10.29557,-24.92611 10.83744,-10.83744 25.46798,-10.83744 14.63055,0 24.92611,10.83744 10.83744,10.29556 10.83744,24.92611 0,14.63054 -10.83744,25.46798 -10.29556,10.29557 -24.92611,10.29557 z"
       id="text10"
       style="font-weight:bold;font-size:541.872px;font-family:Comfortaa;-inkscape-font-specification:'Comfortaa Bold';fill:#000000;stroke:#ffffff;stroke-width:0;stroke-linecap:round;stroke-linejoin:round"
       aria-label="spheri" />
    <path
       id="circle2"
       style="color:#000000;fill:#000000;stroke-linecap:round;stroke-linejoin:round;-inkscape-stroke:none"
       d="m 380.28015,-655.94909 c -36.03677,-21.53346 -75.87387,-37.61844 -118.45799,-47.05911 -170.336488,-37.76269 -345.741642,39.41631 -432.97773,190.51364 -87.23609,151.09734 -66.37345,341.59383 51.49824,470.228221 C -1.7856439,86.368044 186.1671,123.75504 344.2926,50.019908 A 25,25 0 0 0 356.38553,16.796988 25,25 0 0 0 323.16261,4.7040534 C 264.7001,31.965577 201.69695,41.709938 140.60993,35.625028 A 337.15585,337.15585 0 0 1 39.436325,-1.5902598 337.15585,337.15585 0 0 1 -83.971428,-462.15426 337.15585,337.15585 0 0 1 376.59257,-585.56201 a 337.15585,337.15585 0 0 1 79.82816,64.66325 c 37.59498,50.71276 61.70593,111.79838 67.48895,177.89869 a 25,25 0 0 0 27.08425,22.72542 25,25 0 0 0 22.72543,-27.08425 C 562.31467,-477.71509 488.39047,-591.34871 380.28015,-655.94909 Z" />
  </g>
</svg>
